<svg width="36" height="36" viewBox="0 0 36 36" fill="none" xmlns="http://www.w3.org/2000/svg">
<path d="M0 14C0 6.26801 6.26801 0 14 0H22C29.732 0 36 6.26801 36 14V22C36 29.732 29.732 36 22 36H14C6.26801 36 0 29.732 0 22V14Z" fill="white" fill-opacity="0.1"/>
<path d="M22 15.3334C23.1046 15.3334 24 14.4379 24 13.3334C24 12.2288 23.1046 11.3334 22 11.3334C20.8954 11.3334 20 12.2288 20 13.3334C20 14.4379 20.8954 15.3334 22 15.3334Z" stroke="white" stroke-width="1.33333" stroke-linecap="round" stroke-linejoin="round"/>
<path d="M14 20C15.1046 20 16 19.1046 16 18C16 16.8954 15.1046 16 14 16C12.8954 16 12 16.8954 12 18C12 19.1046 12.8954 20 14 20Z" stroke="white" stroke-width="1.33333" stroke-linecap="round" stroke-linejoin="round"/>
<path d="M22 24.6666C23.1046 24.6666 24 23.7712 24 22.6666C24 21.5621 23.1046 20.6666 22 20.6666C20.8954 20.6666 20 21.5621 20 22.6666C20 23.7712 20.8954 24.6666 22 24.6666Z" stroke="white" stroke-width="1.33333" stroke-linecap="round" stroke-linejoin="round"/>
<path d="M15.7266 19.0067L20.2799 21.66" stroke="white" stroke-width="1.33333" stroke-linecap="round" stroke-linejoin="round"/>
<path d="M20.2732 14.34L15.7266 16.9933" stroke="white" stroke-width="1.33333" stroke-linecap="round" stroke-linejoin="round"/>
</svg>
