<svg width="121" height="36" viewBox="0 0 121 36" fill="none" xmlns="http://www.w3.org/2000/svg">
<path d="M0 18C0 8.05888 8.05888 0 18 0H103C112.941 0 121 8.05888 121 18C121 27.9411 112.941 36 103 36H18C8.05887 36 0 27.9411 0 18Z" fill="#FEE2E2"/>
<path d="M20.0002 24.6666C23.6821 24.6666 26.6668 21.6819 26.6668 18C26.6668 14.3181 23.6821 11.3333 20.0002 11.3333C16.3183 11.3333 13.3335 14.3181 13.3335 18C13.3335 21.6819 16.3183 24.6666 20.0002 24.6666Z" stroke="#DC2626" stroke-width="1.33333" stroke-linecap="round" stroke-linejoin="round"/>
<path d="M20 15.3333V18" stroke="#DC2626" stroke-width="1.33333" stroke-linecap="round" stroke-linejoin="round"/>
<path d="M20 20.6667H20.0067" stroke="#DC2626" stroke-width="1.33333" stroke-linecap="round" stroke-linejoin="round"/>
<path d="M34.924 24V13.57H42.064V15.46H37.094V18.106H41.364V19.996H37.094V24H34.924ZM42.563 24V16.356H44.523V18.19L44.383 17.924C44.551 17.28 44.8263 16.846 45.209 16.622C45.601 16.3887 46.063 16.272 46.595 16.272H47.043V18.092H46.385C45.8716 18.092 45.4563 18.2507 45.139 18.568C44.8216 18.876 44.663 19.3147 44.663 19.884V24H42.563ZM50.3294 24.168C49.7787 24.168 49.3027 24.0793 48.9014 23.902C48.5 23.7247 48.192 23.4727 47.9774 23.146C47.7627 22.81 47.6554 22.4133 47.6554 21.956C47.6554 21.5267 47.7534 21.1487 47.9494 20.822C48.1454 20.486 48.444 20.206 48.8454 19.982C49.256 19.758 49.7647 19.5993 50.3714 19.506L52.7094 19.128V20.668L50.7494 21.018C50.4507 21.074 50.222 21.172 50.0634 21.312C49.9047 21.4427 49.8254 21.634 49.8254 21.886C49.8254 22.1193 49.914 22.3013 50.0914 22.432C50.2687 22.5627 50.488 22.628 50.7494 22.628C51.0947 22.628 51.398 22.5533 51.6594 22.404C51.9207 22.2547 52.1214 22.054 52.2614 21.802C52.4107 21.5407 52.4854 21.256 52.4854 20.948V18.96C52.4854 18.6707 52.3687 18.428 52.1354 18.232C51.9114 18.036 51.6034 17.938 51.2114 17.938C50.838 17.938 50.5067 18.0407 50.2174 18.246C49.9374 18.4513 49.732 18.722 49.6014 19.058L47.9214 18.26C48.0707 17.8307 48.3087 17.462 48.6354 17.154C48.962 16.846 49.354 16.608 49.8114 16.44C50.2687 16.272 50.768 16.188 51.3094 16.188C51.9534 16.188 52.5227 16.3047 53.0174 16.538C53.512 16.7713 53.8947 17.098 54.1654 17.518C54.4454 17.9287 54.5854 18.4093 54.5854 18.96V24H52.6254V22.768L53.1014 22.684C52.8774 23.02 52.63 23.3 52.3594 23.524C52.0887 23.7387 51.7854 23.8973 51.4494 24C51.1134 24.112 50.74 24.168 50.3294 24.168ZM58.8695 24.168C58.2535 24.168 57.7261 24.0373 57.2875 23.776C56.8581 23.5053 56.5315 23.132 56.3075 22.656C56.0835 22.18 55.9715 21.6247 55.9715 20.99V16.356H58.0715V20.822C58.0715 21.1113 58.1275 21.368 58.2395 21.592C58.3608 21.8067 58.5288 21.9747 58.7435 22.096C58.9581 22.2173 59.2008 22.278 59.4715 22.278C59.7515 22.278 59.9941 22.2173 60.1995 22.096C60.4141 21.9747 60.5775 21.8067 60.6895 21.592C60.8108 21.368 60.8715 21.1113 60.8715 20.822V16.356H62.9715V24H61.0115V22.488L61.1235 22.824C60.9461 23.2813 60.6568 23.622 60.2555 23.846C59.8635 24.0607 59.4015 24.168 58.8695 24.168ZM68.1043 24.168C67.3577 24.168 66.6903 23.9907 66.1023 23.636C65.5143 23.2813 65.0477 22.8007 64.7023 22.194C64.3663 21.5873 64.1983 20.9153 64.1983 20.178C64.1983 19.4313 64.371 18.7593 64.7163 18.162C65.0617 17.5553 65.5283 17.0747 66.1163 16.72C66.7043 16.3653 67.3623 16.188 68.0903 16.188C68.6503 16.188 69.145 16.2953 69.5743 16.51C70.013 16.7153 70.3583 17.0093 70.6103 17.392L70.2883 17.812V13.402H72.3883V24H70.4283V22.6L70.6243 23.034C70.363 23.4073 70.0083 23.692 69.5603 23.888C69.1123 24.0747 68.627 24.168 68.1043 24.168ZM68.3563 22.278C68.739 22.278 69.075 22.1893 69.3643 22.012C69.6537 21.8347 69.8777 21.5873 70.0363 21.27C70.2043 20.9527 70.2883 20.5887 70.2883 20.178C70.2883 19.7673 70.2043 19.4033 70.0363 19.086C69.8777 18.7687 69.6537 18.5213 69.3643 18.344C69.075 18.1667 68.739 18.078 68.3563 18.078C67.9737 18.078 67.6283 18.1713 67.3203 18.358C67.0217 18.5353 66.7883 18.7827 66.6203 19.1C66.4523 19.408 66.3683 19.7673 66.3683 20.178C66.3683 20.5887 66.4523 20.9527 66.6203 21.27C66.7883 21.5873 67.0217 21.8347 67.3203 22.012C67.6283 22.1893 67.9737 22.278 68.3563 22.278ZM76.6703 24.168C76.0543 24.168 75.5269 24.0373 75.0883 23.776C74.6589 23.5053 74.3323 23.132 74.1083 22.656C73.8843 22.18 73.7723 21.6247 73.7723 20.99V16.356H75.8723V20.822C75.8723 21.1113 75.9283 21.368 76.0403 21.592C76.1616 21.8067 76.3296 21.9747 76.5443 22.096C76.7589 22.2173 77.0016 22.278 77.2722 22.278C77.5523 22.278 77.7949 22.2173 78.0003 22.096C78.2149 21.9747 78.3783 21.8067 78.4903 21.592C78.6116 21.368 78.6723 21.1113 78.6723 20.822V16.356H80.7723V24H78.8123V22.488L78.9243 22.824C78.7469 23.2813 78.4576 23.622 78.0563 23.846C77.6643 24.0607 77.2023 24.168 76.6703 24.168ZM82.3071 24V13.402H84.4071V24H82.3071ZM89.6258 24.168C88.8138 24.168 88.1092 23.9907 87.5118 23.636C86.9145 23.272 86.4525 22.7867 86.1258 22.18C85.7992 21.5733 85.6358 20.9013 85.6358 20.164C85.6358 19.3987 85.8038 18.7173 86.1398 18.12C86.4852 17.5227 86.9472 17.0513 87.5258 16.706C88.1045 16.3607 88.7578 16.188 89.4858 16.188C90.0925 16.188 90.6292 16.286 91.0958 16.482C91.5625 16.6687 91.9545 16.9347 92.2718 17.28C92.5985 17.6253 92.8458 18.0267 93.0138 18.484C93.1818 18.932 93.2658 19.422 93.2658 19.954C93.2658 20.1033 93.2565 20.2527 93.2378 20.402C93.2285 20.542 93.2052 20.6633 93.1678 20.766H87.4418V19.226H91.9778L90.9838 19.954C91.0772 19.5527 91.0725 19.198 90.9698 18.89C90.8672 18.5727 90.6852 18.3253 90.4238 18.148C90.1718 17.9613 89.8592 17.868 89.4858 17.868C89.1218 17.868 88.8092 17.9567 88.5478 18.134C88.2865 18.3113 88.0905 18.5727 87.9598 18.918C87.8292 19.2633 87.7778 19.6833 87.8058 20.178C87.7685 20.6073 87.8198 20.9853 87.9598 21.312C88.0998 21.6387 88.3145 21.8953 88.6038 22.082C88.8932 22.2593 89.2432 22.348 89.6538 22.348C90.0272 22.348 90.3445 22.2733 90.6058 22.124C90.8765 21.9747 91.0865 21.7693 91.2358 21.508L92.9158 22.306C92.7665 22.6793 92.5285 23.006 92.2018 23.286C91.8845 23.566 91.5065 23.7853 91.0678 23.944C90.6292 24.0933 90.1485 24.168 89.6258 24.168ZM94.5024 24V16.356H96.4624V17.868L96.3504 17.532C96.5278 17.0747 96.8124 16.7387 97.2044 16.524C97.6058 16.3 98.0724 16.188 98.6044 16.188C99.1831 16.188 99.6871 16.3093 100.116 16.552C100.555 16.7947 100.896 17.1353 101.138 17.574C101.381 18.0033 101.502 18.5073 101.502 19.086V24H99.4024V19.534C99.4024 19.2353 99.3418 18.9787 99.2204 18.764C99.1084 18.5493 98.9451 18.3813 98.7304 18.26C98.5251 18.1387 98.2824 18.078 98.0024 18.078C97.7318 18.078 97.4891 18.1387 97.2744 18.26C97.0598 18.3813 96.8918 18.5493 96.7704 18.764C96.6584 18.9787 96.6024 19.2353 96.6024 19.534V24H94.5024ZM106.565 24.084C105.641 24.084 104.923 23.8367 104.409 23.342C103.905 22.838 103.653 22.138 103.653 21.242V18.176H102.365V16.356H102.435C102.827 16.356 103.126 16.258 103.331 16.062C103.546 15.866 103.653 15.572 103.653 15.18V14.62H105.753V16.356H107.545V18.176H105.753V21.102C105.753 21.3633 105.8 21.5827 105.893 21.76C105.987 21.928 106.131 22.054 106.327 22.138C106.523 22.222 106.766 22.264 107.055 22.264C107.121 22.264 107.195 22.2593 107.279 22.25C107.363 22.2407 107.452 22.2313 107.545 22.222V24C107.405 24.0187 107.247 24.0373 107.069 24.056C106.892 24.0747 106.724 24.084 106.565 24.084Z" fill="#DC2626"/>
</svg>
