<svg width="104" height="36" viewBox="0 0 104 36" fill="none" xmlns="http://www.w3.org/2000/svg">
<path d="M0 18C0 8.05888 8.05888 0 18 0H86C95.9411 0 104 8.05888 104 18C104 27.9411 95.9411 36 86 36H18C8.05888 36 0 27.9411 0 18Z" fill="#DCFCE7"/>
<path d="M26.5341 16.6667C26.8385 18.1609 26.6215 19.7143 25.9193 21.0679C25.2171 22.4214 24.072 23.4934 22.6751 24.1049C21.2782 24.7164 19.7138 24.8305 18.2429 24.4282C16.772 24.026 15.4835 23.1316 14.5923 21.8943C13.701 20.657 13.2608 19.1515 13.3452 17.6289C13.4295 16.1063 14.0333 14.6587 15.0558 13.5274C16.0783 12.3962 17.4578 11.6496 18.9641 11.4123C20.4704 11.175 22.0126 11.4612 23.3334 12.2233" stroke="#059669" stroke-width="1.33333" stroke-linecap="round" stroke-linejoin="round"/>
<path d="M18 17.3334L20 19.3334L26.6667 12.6667" stroke="#059669" stroke-width="1.33333" stroke-linecap="round" stroke-linejoin="round"/>
<path d="M39.936 24.168C39.1893 24.168 38.494 24.0327 37.85 23.762C37.206 23.4913 36.6413 23.1133 36.156 22.628C35.6707 22.1427 35.2927 21.5733 35.022 20.92C34.7513 20.2667 34.616 19.5527 34.616 18.778C34.616 18.0033 34.7467 17.2893 35.008 16.636C35.2693 15.9733 35.638 15.404 36.114 14.928C36.59 14.4427 37.1453 14.0693 37.78 13.808C38.424 13.5373 39.124 13.402 39.88 13.402C40.636 13.402 41.3127 13.528 41.91 13.78C42.5167 14.032 43.03 14.368 43.45 14.788C43.87 15.208 44.1687 15.6747 44.346 16.188L42.428 17.112C42.2507 16.608 41.938 16.1927 41.49 15.866C41.0513 15.53 40.5147 15.362 39.88 15.362C39.264 15.362 38.7227 15.5067 38.256 15.796C37.7893 16.0853 37.4253 16.4867 37.164 17C36.912 17.504 36.786 18.0967 36.786 18.778C36.786 19.4593 36.9213 20.0567 37.192 20.57C37.4627 21.0833 37.8313 21.4847 38.298 21.774C38.774 22.0633 39.32 22.208 39.936 22.208C40.412 22.208 40.8553 22.1193 41.266 21.942C41.686 21.7553 42.022 21.4893 42.274 21.144C42.5353 20.7987 42.666 20.3833 42.666 19.898V19.03L43.66 19.87H39.88V18.05H44.836V19.156C44.836 20.0053 44.696 20.7473 44.416 21.382C44.136 22.0073 43.758 22.53 43.282 22.95C42.8153 23.3607 42.288 23.6687 41.7 23.874C41.1213 24.07 40.5333 24.168 39.936 24.168ZM49.704 24.168C48.892 24.168 48.1873 23.9907 47.59 23.636C46.9926 23.272 46.5306 22.7867 46.204 22.18C45.8773 21.5733 45.714 20.9013 45.714 20.164C45.714 19.3987 45.882 18.7173 46.218 18.12C46.5633 17.5227 47.0253 17.0513 47.604 16.706C48.1826 16.3607 48.836 16.188 49.564 16.188C50.1706 16.188 50.7073 16.286 51.174 16.482C51.6406 16.6687 52.0326 16.9347 52.35 17.28C52.6766 17.6253 52.924 18.0267 53.092 18.484C53.26 18.932 53.344 19.422 53.344 19.954C53.344 20.1033 53.3346 20.2527 53.316 20.402C53.3066 20.542 53.2833 20.6633 53.246 20.766H47.52V19.226H52.056L51.062 19.954C51.1553 19.5527 51.1506 19.198 51.048 18.89C50.9453 18.5727 50.7633 18.3253 50.502 18.148C50.25 17.9613 49.9373 17.868 49.564 17.868C49.2 17.868 48.8873 17.9567 48.626 18.134C48.3646 18.3113 48.1686 18.5727 48.038 18.918C47.9073 19.2633 47.856 19.6833 47.884 20.178C47.8466 20.6073 47.898 20.9853 48.038 21.312C48.178 21.6387 48.3926 21.8953 48.682 22.082C48.9713 22.2593 49.3213 22.348 49.732 22.348C50.1053 22.348 50.4226 22.2733 50.684 22.124C50.9546 21.9747 51.1646 21.7693 51.314 21.508L52.994 22.306C52.8446 22.6793 52.6066 23.006 52.28 23.286C51.9626 23.566 51.5846 23.7853 51.146 23.944C50.7073 24.0933 50.2266 24.168 49.704 24.168ZM54.5805 24V16.356H56.5405V17.868L56.4285 17.532C56.6059 17.0747 56.8905 16.7387 57.2825 16.524C57.6839 16.3 58.1505 16.188 58.6825 16.188C59.2612 16.188 59.7652 16.3093 60.1945 16.552C60.6332 16.7947 60.9739 17.1353 61.2165 17.574C61.4592 18.0033 61.5805 18.5073 61.5805 19.086V24H59.4805V19.534C59.4805 19.2353 59.4199 18.9787 59.2985 18.764C59.1865 18.5493 59.0232 18.3813 58.8085 18.26C58.6032 18.1387 58.3605 18.078 58.0805 18.078C57.8099 18.078 57.5672 18.1387 57.3525 18.26C57.1379 18.3813 56.9699 18.5493 56.8485 18.764C56.7365 18.9787 56.6805 19.2353 56.6805 19.534V24H54.5805ZM65.7054 24.168C65.0894 24.168 64.5621 24.0373 64.1234 23.776C63.6941 23.5053 63.3674 23.132 63.1434 22.656C62.9194 22.18 62.8074 21.6247 62.8074 20.99V16.356H64.9074V20.822C64.9074 21.1113 64.9634 21.368 65.0754 21.592C65.1967 21.8067 65.3647 21.9747 65.5794 22.096C65.7941 22.2173 66.0367 22.278 66.3074 22.278C66.5874 22.278 66.8301 22.2173 67.0354 22.096C67.2501 21.9747 67.4134 21.8067 67.5254 21.592C67.6467 21.368 67.7074 21.1113 67.7074 20.822V16.356H69.8074V24H67.8474V22.488L67.9594 22.824C67.7821 23.2813 67.4927 23.622 67.0914 23.846C66.6994 24.0607 66.2374 24.168 65.7054 24.168ZM71.3423 24V16.356H73.4423V24H71.3423ZM71.3423 15.67V13.57H73.4423V15.67H71.3423ZM74.979 24V16.356H76.939V17.868L76.827 17.532C77.0043 17.0747 77.289 16.7387 77.681 16.524C78.0823 16.3 78.549 16.188 79.081 16.188C79.6597 16.188 80.1637 16.3093 80.593 16.552C81.0317 16.7947 81.3723 17.1353 81.615 17.574C81.8577 18.0033 81.979 18.5073 81.979 19.086V24H79.879V19.534C79.879 19.2353 79.8183 18.9787 79.697 18.764C79.585 18.5493 79.4217 18.3813 79.207 18.26C79.0017 18.1387 78.759 18.078 78.479 18.078C78.2083 18.078 77.9657 18.1387 77.751 18.26C77.5363 18.3813 77.3683 18.5493 77.247 18.764C77.135 18.9787 77.079 19.2353 77.079 19.534V24H74.979ZM87.0418 24.168C86.2298 24.168 85.5252 23.9907 84.9278 23.636C84.3305 23.272 83.8685 22.7867 83.5418 22.18C83.2152 21.5733 83.0518 20.9013 83.0518 20.164C83.0518 19.3987 83.2198 18.7173 83.5558 18.12C83.9012 17.5227 84.3632 17.0513 84.9418 16.706C85.5205 16.3607 86.1738 16.188 86.9018 16.188C87.5085 16.188 88.0452 16.286 88.5118 16.482C88.9785 16.6687 89.3705 16.9347 89.6878 17.28C90.0145 17.6253 90.2618 18.0267 90.4298 18.484C90.5978 18.932 90.6818 19.422 90.6818 19.954C90.6818 20.1033 90.6725 20.2527 90.6538 20.402C90.6445 20.542 90.6212 20.6633 90.5838 20.766H84.8578V19.226H89.3938L88.3998 19.954C88.4932 19.5527 88.4885 19.198 88.3858 18.89C88.2832 18.5727 88.1012 18.3253 87.8398 18.148C87.5878 17.9613 87.2752 17.868 86.9018 17.868C86.5378 17.868 86.2252 17.9567 85.9638 18.134C85.7025 18.3113 85.5065 18.5727 85.3758 18.918C85.2452 19.2633 85.1938 19.6833 85.2218 20.178C85.1845 20.6073 85.2358 20.9853 85.3758 21.312C85.5158 21.6387 85.7305 21.8953 86.0198 22.082C86.3092 22.2593 86.6592 22.348 87.0698 22.348C87.4432 22.348 87.7605 22.2733 88.0218 22.124C88.2925 21.9747 88.5025 21.7693 88.6518 21.508L90.3318 22.306C90.1825 22.6793 89.9445 23.006 89.6178 23.286C89.3005 23.566 88.9225 23.7853 88.4838 23.944C88.0452 24.0933 87.5645 24.168 87.0418 24.168Z" fill="#059669"/>
</svg>
