<svg width="192" height="144" viewBox="0 0 192 144" fill="none" xmlns="http://www.w3.org/2000/svg">
<path d="M93.75 114C113.011 114 128.625 98.5538 128.625 79.5C128.625 60.4462 113.011 45 93.75 45C74.4891 45 58.875 60.4462 58.875 79.5C58.875 98.5538 74.4891 114 93.75 114Z" fill="#E8EFFC" stroke="#0A3D8F" stroke-width="1.82857"/>
<path d="M75.375 80.25C75.375 67.25 81.625 60.75 94.125 60.75C106.625 60.75 112.875 67.25 112.875 80.25" stroke="#0A3D8F" stroke-width="2.74286" stroke-linecap="round"/>
<path d="M79.875 81.975C79.875 79.3655 77.8603 77.25 75.375 77.25C72.8897 77.25 70.875 79.3655 70.875 81.975V88.275C70.875 90.8845 72.8897 93 75.375 93C77.8603 93 79.875 90.8845 79.875 88.275V81.975Z" fill="#0A3D8F"/>
<path d="M117.375 81.975C117.375 79.3655 115.36 77.25 112.875 77.25C110.39 77.25 108.375 79.3655 108.375 81.975V88.275C108.375 90.8845 110.39 93 112.875 93C115.36 93 117.375 90.8845 117.375 88.275V81.975Z" fill="#0A3D8F"/>
<path d="M164.208 29.25H123.042C118.669 29.25 115.125 32.8317 115.125 37.25V45.25C115.125 49.6683 118.669 53.25 123.042 53.25H164.208C168.581 53.25 172.125 49.6683 172.125 45.25V37.25C172.125 32.8317 168.581 29.25 164.208 29.25Z" fill="#0D9488"/>
<path d="M119.906 52.5L115.125 58.5L127.875 52.5H119.906Z" fill="#0D9488"/>
<path opacity="0.8" d="M143.531 36.75H121.219C120.339 36.75 119.625 37.2537 119.625 37.875C119.625 38.4963 120.339 39 121.219 39H143.531C144.411 39 145.125 38.4963 145.125 37.875C145.125 37.2537 144.411 36.75 143.531 36.75Z" fill="white"/>
<path opacity="0.6" d="M135.307 43.5H121.193C120.327 43.5 119.625 44.1716 119.625 45C119.625 45.8284 120.327 46.5 121.193 46.5H135.307C136.173 46.5 136.875 45.8284 136.875 45C136.875 44.1716 136.173 43.5 135.307 43.5Z" fill="white"/>
</svg>
