<svg width="36" height="36" viewBox="0 0 36 36" fill="none" xmlns="http://www.w3.org/2000/svg">
<path d="M0 14C0 6.26801 6.26801 0 14 0H22C29.732 0 36 6.26801 36 14V22C36 29.732 29.732 36 22 36H14C6.26801 36 0 29.732 0 22V14Z" fill="#CCFBF1"/>
<path d="M12 18C12 19.1867 12.3519 20.3467 13.0112 21.3334C13.6705 22.3201 14.6075 23.0892 15.7039 23.5433C16.8003 23.9974 18.0067 24.1162 19.1705 23.8847C20.3344 23.6532 21.4035 23.0818 22.2426 22.2426C23.0818 21.4035 23.6532 20.3344 23.8847 19.1705C24.1162 18.0067 23.9974 16.8003 23.5433 15.7039C23.0892 14.6075 22.3201 13.6705 21.3334 13.0112C20.3467 12.3519 19.1867 12 18 12C16.3226 12.0063 14.7126 12.6608 13.5067 13.8267L12 15.3333" stroke="#0D9488" stroke-width="1.33333" stroke-linecap="round" stroke-linejoin="round"/>
<path d="M12 12V15.3333H15.3333" stroke="#0D9488" stroke-width="1.33333" stroke-linecap="round" stroke-linejoin="round"/>
<path d="M18 14.6666V18L20.6667 19.3333" stroke="#0D9488" stroke-width="1.33333" stroke-linecap="round" stroke-linejoin="round"/>
</svg>
