<svg width="36" height="36" viewBox="0 0 36 36" fill="none" xmlns="http://www.w3.org/2000/svg">
<path d="M0 14C0 6.26801 6.26801 0 14 0H22C29.732 0 36 6.26801 36 14V22C36 29.732 29.732 36 22 36H14C6.26801 36 0 29.732 0 22V14Z" fill="#FFFBEB"/>
<path d="M18 14.6666V24" stroke="#D97706" stroke-width="1.33333" stroke-linecap="round" stroke-linejoin="round"/>
<path d="M12.0002 22C11.8234 22 11.6538 21.9298 11.5288 21.8047C11.4037 21.6797 11.3335 21.5101 11.3335 21.3333V12.6667C11.3335 12.4899 11.4037 12.3203 11.5288 12.1953C11.6538 12.0702 11.8234 12 12.0002 12H15.3335C16.0407 12 16.719 12.281 17.2191 12.781C17.7192 13.2811 18.0002 13.9594 18.0002 14.6667C18.0002 13.9594 18.2811 13.2811 18.7812 12.781C19.2813 12.281 19.9596 12 20.6668 12H24.0002C24.177 12 24.3465 12.0702 24.4716 12.1953C24.5966 12.3203 24.6668 12.4899 24.6668 12.6667V21.3333C24.6668 21.5101 24.5966 21.6797 24.4716 21.8047C24.3465 21.9298 24.177 22 24.0002 22H20.0002C19.4697 22 18.961 22.2107 18.5859 22.5858C18.2109 22.9609 18.0002 23.4696 18.0002 24C18.0002 23.4696 17.7894 22.9609 17.4144 22.5858C17.0393 22.2107 16.5306 22 16.0002 22H12.0002Z" stroke="#D97706" stroke-width="1.33333" stroke-linecap="round" stroke-linejoin="round"/>
</svg>
