<svg width="36" height="36" viewBox="0 0 36 36" fill="none" xmlns="http://www.w3.org/2000/svg">
<path d="M0 18C0 8.05888 8.05888 0 18 0C27.9411 0 36 8.05888 36 18C36 27.9411 27.9411 36 18 36C8.05888 36 0 27.9411 0 18Z" fill="white" fill-opacity="0.2"/>
<path d="M18.0002 24.6667C21.6821 24.6667 24.6668 21.6819 24.6668 18C24.6668 14.3181 21.6821 11.3334 18.0002 11.3334C14.3183 11.3334 11.3335 14.3181 11.3335 18C11.3335 21.6819 14.3183 24.6667 18.0002 24.6667Z" stroke="white" stroke-width="1.33333" stroke-linecap="round" stroke-linejoin="round"/>
<path d="M16.0601 16C16.2168 15.5545 16.5262 15.1788 16.9334 14.9394C17.3406 14.7001 17.8193 14.6126 18.2848 14.6925C18.7504 14.7723 19.1726 15.0144 19.4768 15.3757C19.781 15.737 19.9474 16.1944 19.9467 16.6667C19.9467 18 17.9467 18.6667 17.9467 18.6667" stroke="white" stroke-width="1.33333" stroke-linecap="round" stroke-linejoin="round"/>
<path d="M18 21.3334H18.0067" stroke="white" stroke-width="1.33333" stroke-linecap="round" stroke-linejoin="round"/>
</svg>
