<svg width="192" height="144" viewBox="0 0 192 144" fill="none" xmlns="http://www.w3.org/2000/svg">
<path d="M95.9999 15.7714L127.543 28.8V72C127.543 89.3714 117.028 103.543 95.9999 114.514C74.9713 103.543 64.457 89.3714 64.457 72V28.8L95.9999 15.7714Z" fill="#E8EFFC" stroke="#0A3D8F" stroke-width="1.71429"/>
<path d="M91.1998 81.6C100.289 81.6 107.657 74.2319 107.657 65.1429C107.657 56.0538 100.289 48.6857 91.1998 48.6857C82.1108 48.6857 74.7427 56.0538 74.7427 65.1429C74.7427 74.2319 82.1108 81.6 91.1998 81.6Z" fill="white" stroke="#0A3D8F" stroke-width="1.71429"/>
<path d="M102.857 76.8L114.514 88.4571" stroke="#0A3D8F" stroke-width="2.74286" stroke-linecap="round"/>
<path d="M91.1999 76.1143C97.2593 76.1143 102.171 71.2022 102.171 65.1428C102.171 59.0835 97.2593 54.1714 91.1999 54.1714C85.1406 54.1714 80.2285 59.0835 80.2285 65.1428C80.2285 71.2022 85.1406 76.1143 91.1999 76.1143Z" fill="#FEF3C7"/>
<path d="M92.5715 59.6571C92.5715 58.8997 91.9575 58.2857 91.2 58.2857C90.4426 58.2857 89.8286 58.8997 89.8286 59.6571V63.7714C89.8286 64.5288 90.4426 65.1428 91.2 65.1428C91.9575 65.1428 92.5715 64.5288 92.5715 63.7714V59.6571Z" fill="#D97706"/>
<path d="M91.2001 70.2857C92.1469 70.2857 92.9144 69.5182 92.9144 68.5714C92.9144 67.6247 92.1469 66.8571 91.2001 66.8571C90.2534 66.8571 89.4858 67.6247 89.4858 68.5714C89.4858 69.5182 90.2534 70.2857 91.2001 70.2857Z" fill="#D97706"/>
</svg>
