<svg width="192" height="144" viewBox="0 0 192 144" fill="none" xmlns="http://www.w3.org/2000/svg">
<path d="M96.0001 14.4L130.286 28.8V74.7429C130.286 93.0286 118.857 108.114 96.0001 120C73.1429 108.114 61.7144 93.0286 61.7144 74.7429V28.8L96.0001 14.4Z" fill="#DCFCE7" stroke="#059669" stroke-width="1.71429"/>
<path opacity="0.15" d="M96 24L122.057 36.3429V74.7429C122.057 88.4571 113.371 100.114 96 109.714C78.6286 100.114 69.9429 88.4571 69.9429 74.7429V36.3429L96 24Z" fill="#059669"/>
<path d="M96.0001 92.5714C107.361 92.5714 116.572 83.3613 116.572 72C116.572 60.6387 107.361 51.4286 96.0001 51.4286C84.6389 51.4286 75.4287 60.6387 75.4287 72C75.4287 83.3613 84.6389 92.5714 96.0001 92.5714Z" fill="#059669"/>
<path d="M86.3999 72L93.257 78.8571L106.971 63.7714" stroke="white" stroke-width="2.74286" stroke-linecap="round" stroke-linejoin="round"/>
</svg>
