<svg width="36" height="36" viewBox="0 0 36 36" fill="none" xmlns="http://www.w3.org/2000/svg">
<path d="M0 14C0 6.26801 6.26801 0 14 0H22C29.732 0 36 6.26801 36 14V22C36 29.732 29.732 36 22 36H14C6.26801 36 0 29.732 0 22V14Z" fill="#E8F0FE"/>
<path d="M11.3747 17.768C11.3191 17.9177 11.3191 18.0823 11.3747 18.232C11.9158 19.5441 12.8344 20.666 14.0139 21.4554C15.1934 22.2448 16.5807 22.6663 18 22.6663C19.4193 22.6663 20.8067 22.2448 21.9862 21.4554C23.1657 20.666 24.0842 19.5441 24.6253 18.232C24.6809 18.0823 24.6809 17.9177 24.6253 17.768C24.0842 16.4559 23.1657 15.334 21.9862 14.5446C20.8067 13.7552 19.4193 13.3337 18 13.3337C16.5807 13.3337 15.1934 13.7552 14.0139 14.5446C12.8344 15.334 11.9158 16.4559 11.3747 17.768Z" stroke="#1877F2" stroke-width="1.33333" stroke-linecap="round" stroke-linejoin="round"/>
<path d="M18 20C19.1046 20 20 19.1046 20 18C20 16.8954 19.1046 16 18 16C16.8954 16 16 16.8954 16 18C16 19.1046 16.8954 20 18 20Z" stroke="#1877F2" stroke-width="1.33333" stroke-linecap="round" stroke-linejoin="round"/>
</svg>
