<svg width="36" height="36" viewBox="0 0 36 36" fill="none" xmlns="http://www.w3.org/2000/svg">
<path d="M0 14C0 6.26801 6.26801 0 14 0H22C29.732 0 36 6.26801 36 14V22C36 29.732 29.732 36 22 36H14C6.26801 36 0 29.732 0 22V14Z" fill="#FEF2F2"/>
<path d="M24.4866 22L19.1533 12.6667C19.037 12.4615 18.8684 12.2908 18.6646 12.172C18.4608 12.0533 18.2291 11.9907 17.9933 11.9907C17.7574 11.9907 17.5258 12.0533 17.322 12.172C17.1182 12.2908 16.9496 12.4615 16.8333 12.6667L11.5 22C11.3824 22.2036 11.3208 22.4346 11.3213 22.6697C11.3218 22.9047 11.3845 23.1355 11.5029 23.3385C11.6214 23.5416 11.7914 23.7097 11.9957 23.8259C12.2001 23.942 12.4316 24.0021 12.6666 24H23.3333C23.5672 23.9997 23.797 23.938 23.9995 23.8208C24.202 23.7037 24.3701 23.5354 24.487 23.3327C24.6038 23.1301 24.6653 22.9002 24.6653 22.6663C24.6652 22.4324 24.6036 22.2026 24.4866 22Z" stroke="#DC2626" stroke-width="1.33333" stroke-linecap="round" stroke-linejoin="round"/>
<path d="M18 16V18.6667" stroke="#DC2626" stroke-width="1.33333" stroke-linecap="round" stroke-linejoin="round"/>
<path d="M18 21.3334H18.0067" stroke="#DC2626" stroke-width="1.33333" stroke-linecap="round" stroke-linejoin="round"/>
</svg>
