<svg width="146" height="146" viewBox="0 0 146 146" fill="none" xmlns="http://www.w3.org/2000/svg">
<mask id="path-1-inside-1_10_1020" fill="white">
<path d="M8.5376 72.5376C8.5376 37.1914 37.1914 8.5376 72.5376 8.5376C107.884 8.5376 136.538 37.1914 136.538 72.5376C136.538 107.884 107.884 136.538 72.5376 136.538C37.1914 136.538 8.5376 107.884 8.5376 72.5376Z"/>
</mask>
<path d="M8.5376 72.5376M136.538 72.5376M136.538 72.5376M8.5376 72.5376M72.5376 8.5376M136.538 72.5376M72.5376 136.538M8.5376 72.5376M72.5376 136.538V132.538C39.4005 132.538 12.5376 105.675 12.5376 72.5376H8.5376H4.5376C4.5376 110.093 34.9822 140.538 72.5376 140.538V136.538ZM136.538 72.5376H132.538C132.538 105.675 105.675 132.538 72.5376 132.538V136.538V140.538C110.093 140.538 140.538 110.093 140.538 72.5376H136.538ZM72.5376 8.5376V12.5376C105.675 12.5376 132.538 39.4005 132.538 72.5376H136.538H140.538C140.538 34.9822 110.093 4.5376 72.5376 4.5376V8.5376ZM72.5376 8.5376V4.5376C34.9822 4.5376 4.5376 34.9822 4.5376 72.5376H8.5376H12.5376C12.5376 39.4005 39.4005 12.5376 72.5376 12.5376V8.5376Z" fill="#E8EFFC" mask="url(#path-1-inside-1_10_1020)"/>
<g filter="url(#filter0_dd_10_1020)">
<path d="M28.5376 72.5376C28.5376 48.2371 48.2371 28.5376 72.5376 28.5376C96.8381 28.5376 116.538 48.2371 116.538 72.5376C116.538 96.8381 96.8381 116.538 72.5376 116.538C48.2371 116.538 28.5376 96.8381 28.5376 72.5376Z" fill="white" shape-rendering="crispEdges"/>
<path d="M82.4375 52.7375H62.6375C57.1699 52.7375 52.7375 57.1699 52.7375 62.6375V82.4375C52.7375 87.9052 57.1699 92.3376 62.6375 92.3376H82.4375C87.9052 92.3376 92.3376 87.9052 92.3376 82.4375V62.6375C92.3376 57.1699 87.9052 52.7375 82.4375 52.7375Z" fill="#0A3D8F"/>
<path d="M62.6377 72.5376L70.3377 80.2376L82.4377 64.8376" stroke="white" stroke-width="3.85" stroke-linecap="round" stroke-linejoin="round"/>
</g>
<defs>
<filter id="filter0_dd_10_1020" x="25.5376" y="26.5376" width="94" height="94" filterUnits="userSpaceOnUse" color-interpolation-filters="sRGB">
<feFlood flood-opacity="0" result="BackgroundImageFix"/>
<feColorMatrix in="SourceAlpha" type="matrix" values="0 0 0 0 0 0 0 0 0 0 0 0 0 0 0 0 0 0 127 0" result="hardAlpha"/>
<feMorphology radius="1" operator="erode" in="SourceAlpha" result="effect1_dropShadow_10_1020"/>
<feOffset dy="1"/>
<feGaussianBlur stdDeviation="1"/>
<feComposite in2="hardAlpha" operator="out"/>
<feColorMatrix type="matrix" values="0 0 0 0 0 0 0 0 0 0 0 0 0 0 0 0 0 0 0.1 0"/>
<feBlend mode="normal" in2="BackgroundImageFix" result="effect1_dropShadow_10_1020"/>
<feColorMatrix in="SourceAlpha" type="matrix" values="0 0 0 0 0 0 0 0 0 0 0 0 0 0 0 0 0 0 127 0" result="hardAlpha"/>
<feOffset dy="1"/>
<feGaussianBlur stdDeviation="1.5"/>
<feComposite in2="hardAlpha" operator="out"/>
<feColorMatrix type="matrix" values="0 0 0 0 0 0 0 0 0 0 0 0 0 0 0 0 0 0 0.1 0"/>
<feBlend mode="normal" in2="effect1_dropShadow_10_1020" result="effect2_dropShadow_10_1020"/>
<feBlend mode="normal" in="SourceGraphic" in2="effect2_dropShadow_10_1020" result="shape"/>
</filter>
</defs>
</svg>
