<svg width="192" height="144" viewBox="0 0 192 144" fill="none" xmlns="http://www.w3.org/2000/svg">
<path d="M95.9999 114.514C119.48 114.514 138.514 95.48 138.514 72C138.514 48.52 119.48 29.4857 95.9999 29.4857C72.5199 29.4857 53.4856 48.52 53.4856 72C53.4856 95.48 72.5199 114.514 95.9999 114.514Z" fill="#DCFCE7" stroke="#059669" stroke-width="1.37143"/>
<path d="M96 104.914C114.178 104.914 128.914 90.1781 128.914 72C128.914 53.822 114.178 39.0857 96 39.0857C77.8219 39.0857 63.0857 53.822 63.0857 72C63.0857 90.1781 77.8219 104.914 96 104.914Z" fill="#059669"/>
<path d="M80.9143 72L91.2 82.2857L112.457 61.0286" stroke="white" stroke-width="3.42857" stroke-linecap="round" stroke-linejoin="round"/>
</svg>
