<svg width="20" height="20" viewBox="0 0 20 20" fill="none" xmlns="http://www.w3.org/2000/svg">
<path d="M0 10C0 4.47715 4.47715 0 10 0C15.5228 0 20 4.47715 20 10C20 15.5228 15.5228 20 10 20C4.47715 20 0 15.5228 0 10Z" fill="#1877F2"/>
<path d="M8.71 14.5V10.34H7.79V9.04H8.71V8.96C8.71 8.52667 8.79333 8.16 8.96 7.86C9.13333 7.56 9.38 7.33 9.7 7.17C10.02 7.01 10.4067 6.93 10.86 6.93C10.9467 6.93 11.04 6.93667 11.14 6.95C11.24 6.95667 11.3233 6.96667 11.39 6.98V8.26C11.3233 8.24667 11.2633 8.24 11.21 8.24C11.1633 8.23333 11.1133 8.23 11.06 8.23C10.78 8.23 10.5667 8.29333 10.42 8.42C10.28 8.54 10.21 8.72 10.21 8.96V9.04H11.38V10.34H10.21V14.5H8.71Z" fill="white"/>
</svg>
