<svg width="80" height="20" viewBox="0 0 80 20" fill="none" xmlns="http://www.w3.org/2000/svg">
<path d="M0 10C0 4.47715 4.47715 0 10 0H70C75.5229 0 80 4.47715 80 10C80 15.5228 75.5229 20 70 20H10C4.47715 20 0 15.5228 0 10Z" fill="#FEE2E2"/>
<path d="M8.792 15V6.06H14.912V7.68H10.652V9.948H14.312V11.568H10.652V15H8.792ZM15.3397 15V8.448H17.0197V10.02L16.8997 9.792C17.0437 9.24 17.2797 8.868 17.6077 8.676C17.9437 8.476 18.3397 8.376 18.7957 8.376H19.1797V9.936H18.6157C18.1757 9.936 17.8197 10.072 17.5477 10.344C17.2757 10.608 17.1397 10.984 17.1397 11.472V15H15.3397ZM21.9966 15.144C21.5246 15.144 21.1166 15.068 20.7726 14.916C20.4286 14.764 20.1646 14.548 19.9806 14.268C19.7966 13.98 19.7046 13.64 19.7046 13.248C19.7046 12.88 19.7886 12.556 19.9566 12.276C20.1246 11.988 20.3806 11.748 20.7246 11.556C21.0766 11.364 21.5126 11.228 22.0326 11.148L24.0366 10.824V12.144L22.3566 12.444C22.1006 12.492 21.9046 12.576 21.7686 12.696C21.6326 12.808 21.5646 12.972 21.5646 13.188C21.5646 13.388 21.6406 13.544 21.7926 13.656C21.9446 13.768 22.1326 13.824 22.3566 13.824C22.6526 13.824 22.9126 13.76 23.1366 13.632C23.3606 13.504 23.5326 13.332 23.6526 13.116C23.7806 12.892 23.8446 12.648 23.8446 12.384V10.68C23.8446 10.432 23.7446 10.224 23.5446 10.056C23.3526 9.888 23.0886 9.804 22.7526 9.804C22.4326 9.804 22.1486 9.892 21.9006 10.068C21.6606 10.244 21.4846 10.476 21.3726 10.764L19.9326 10.08C20.0606 9.712 20.2646 9.396 20.5446 9.132C20.8246 8.868 21.1606 8.664 21.5526 8.52C21.9446 8.376 22.3726 8.304 22.8366 8.304C23.3886 8.304 23.8766 8.404 24.3006 8.604C24.7246 8.804 25.0526 9.084 25.2846 9.444C25.5246 9.796 25.6446 10.208 25.6446 10.68V15H23.9646V13.944L24.3726 13.872C24.1806 14.16 23.9686 14.4 23.7366 14.592C23.5046 14.776 23.2446 14.912 22.9566 15C22.6686 15.096 22.3486 15.144 21.9966 15.144ZM29.3167 15.144C28.7887 15.144 28.3367 15.032 27.9607 14.808C27.5927 14.576 27.3127 14.256 27.1207 13.848C26.9287 13.44 26.8327 12.964 26.8327 12.42V8.448H28.6327V12.276C28.6327 12.524 28.6807 12.744 28.7767 12.936C28.8807 13.12 29.0247 13.264 29.2087 13.368C29.3927 13.472 29.6007 13.524 29.8327 13.524C30.0727 13.524 30.2807 13.472 30.4567 13.368C30.6407 13.264 30.7807 13.12 30.8767 12.936C30.9807 12.744 31.0327 12.524 31.0327 12.276V8.448H32.8327V15H31.1527V13.704L31.2487 13.992C31.0967 14.384 30.8487 14.676 30.5047 14.868C30.1687 15.052 29.7727 15.144 29.3167 15.144ZM37.2323 15.144C36.5923 15.144 36.0203 14.992 35.5163 14.688C35.0123 14.384 34.6123 13.972 34.3163 13.452C34.0283 12.932 33.8843 12.356 33.8843 11.724C33.8843 11.084 34.0323 10.508 34.3283 9.996C34.6243 9.476 35.0243 9.064 35.5283 8.76C36.0323 8.456 36.5963 8.304 37.2203 8.304C37.7003 8.304 38.1243 8.396 38.4923 8.58C38.8683 8.756 39.1643 9.008 39.3803 9.336L39.1043 9.696V5.916H40.9043V15H39.2243V13.8L39.3923 14.172C39.1683 14.492 38.8643 14.736 38.4803 14.904C38.0963 15.064 37.6803 15.144 37.2323 15.144ZM37.4483 13.524C37.7763 13.524 38.0643 13.448 38.3123 13.296C38.5603 13.144 38.7523 12.932 38.8883 12.66C39.0323 12.388 39.1043 12.076 39.1043 11.724C39.1043 11.372 39.0323 11.06 38.8883 10.788C38.7523 10.516 38.5603 10.304 38.3123 10.152C38.0643 10 37.7763 9.924 37.4483 9.924C37.1203 9.924 36.8243 10.004 36.5603 10.164C36.3043 10.316 36.1043 10.528 35.9603 10.8C35.8163 11.064 35.7443 11.372 35.7443 11.724C35.7443 12.076 35.8163 12.388 35.9603 12.66C36.1043 12.932 36.3043 13.144 36.5603 13.296C36.8243 13.448 37.1203 13.524 37.4483 13.524ZM44.5745 15.144C44.0465 15.144 43.5945 15.032 43.2185 14.808C42.8505 14.576 42.5705 14.256 42.3785 13.848C42.1865 13.44 42.0905 12.964 42.0905 12.42V8.448H43.8905V12.276C43.8905 12.524 43.9385 12.744 44.0345 12.936C44.1385 13.12 44.2825 13.264 44.4665 13.368C44.6505 13.472 44.8585 13.524 45.0905 13.524C45.3305 13.524 45.5385 13.472 45.7145 13.368C45.8985 13.264 46.0385 13.12 46.1345 12.936C46.2385 12.744 46.2905 12.524 46.2905 12.276V8.448H48.0905V15H46.4105V13.704L46.5065 13.992C46.3545 14.384 46.1065 14.676 45.7625 14.868C45.4265 15.052 45.0305 15.144 44.5745 15.144ZM49.4061 15V5.916H51.2061V15H49.4061ZM55.6793 15.144C54.9833 15.144 54.3793 14.992 53.8673 14.688C53.3553 14.376 52.9593 13.96 52.6793 13.44C52.3993 12.92 52.2593 12.344 52.2593 11.712C52.2593 11.056 52.4033 10.472 52.6913 9.96C52.9873 9.448 53.3833 9.044 53.8793 8.748C54.3753 8.452 54.9353 8.304 55.5593 8.304C56.0793 8.304 56.5393 8.388 56.9393 8.556C57.3393 8.716 57.6753 8.944 57.9473 9.24C58.2273 9.536 58.4393 9.88 58.5833 10.272C58.7273 10.656 58.7993 11.076 58.7993 11.532C58.7993 11.66 58.7913 11.788 58.7753 11.916C58.7673 12.036 58.7473 12.14 58.7153 12.228H53.8073V10.908H57.6953L56.8433 11.532C56.9233 11.188 56.9193 10.884 56.8313 10.62C56.7433 10.348 56.5873 10.136 56.3633 9.984C56.1473 9.824 55.8793 9.744 55.5593 9.744C55.2473 9.744 54.9793 9.82 54.7553 9.972C54.5313 10.124 54.3633 10.348 54.2513 10.644C54.1393 10.94 54.0953 11.3 54.1193 11.724C54.0873 12.092 54.1313 12.416 54.2513 12.696C54.3713 12.976 54.5553 13.196 54.8033 13.356C55.0513 13.508 55.3513 13.584 55.7033 13.584C56.0233 13.584 56.2953 13.52 56.5193 13.392C56.7513 13.264 56.9313 13.088 57.0593 12.864L58.4993 13.548C58.3713 13.868 58.1673 14.148 57.8873 14.388C57.6153 14.628 57.2913 14.816 56.9153 14.952C56.5393 15.08 56.1273 15.144 55.6793 15.144ZM59.8592 15V8.448H61.5392V9.744L61.4432 9.456C61.5952 9.064 61.8392 8.776 62.1752 8.592C62.5192 8.4 62.9192 8.304 63.3752 8.304C63.8712 8.304 64.3032 8.408 64.6712 8.616C65.0472 8.824 65.3392 9.116 65.5472 9.492C65.7552 9.86 65.8592 10.292 65.8592 10.788V15H64.0592V11.172C64.0592 10.916 64.0072 10.696 63.9032 10.512C63.8072 10.328 63.6672 10.184 63.4832 10.08C63.3072 9.976 63.0992 9.924 62.8592 9.924C62.6272 9.924 62.4192 9.976 62.2352 10.08C62.0512 10.184 61.9072 10.328 61.8032 10.512C61.7072 10.696 61.6592 10.916 61.6592 11.172V15H59.8592ZM70.1988 15.072C69.4068 15.072 68.7908 14.86 68.3508 14.436C67.9188 14.004 67.7028 13.404 67.7028 12.636V10.008H66.5988V8.448H66.6588C66.9948 8.448 67.2508 8.364 67.4268 8.196C67.6108 8.028 67.7028 7.776 67.7028 7.44V6.96H69.5028V8.448H71.0388V10.008H69.5028V12.516C69.5028 12.74 69.5428 12.928 69.6228 13.08C69.7028 13.224 69.8268 13.332 69.9948 13.404C70.1628 13.476 70.3708 13.512 70.6188 13.512C70.6748 13.512 70.7388 13.508 70.8108 13.5C70.8828 13.492 70.9588 13.484 71.0388 13.476V15C70.9188 15.016 70.7828 15.032 70.6308 15.048C70.4788 15.064 70.3348 15.072 70.1988 15.072Z" fill="#DC2626"/>
</svg>
