<svg width="12" height="12" viewBox="0 0 12 12" fill="none" xmlns="http://www.w3.org/2000/svg">
<g clip-path="url(#clip0_4001_91)">
<path d="M10.865 8.99999L6.86503 1.99999C6.77781 1.84609 6.65133 1.71808 6.49849 1.62902C6.34565 1.53997 6.17192 1.49304 5.99503 1.49304C5.81813 1.49304 5.6444 1.53997 5.49156 1.62902C5.33872 1.71808 5.21224 1.84609 5.12503 1.99999L1.12503 8.99999C1.03687 9.15267 0.99064 9.32594 0.99103 9.50224C0.991421 9.67855 1.03841 9.85162 1.12725 10.0039C1.21608 10.1562 1.3436 10.2823 1.49687 10.3694C1.65015 10.4565 1.82373 10.5016 2.00003 10.5H10C10.1755 10.4998 10.3478 10.4535 10.4997 10.3656C10.6515 10.2778 10.7776 10.1515 10.8653 9.99955C10.9529 9.84756 10.999 9.67518 10.999 9.49973C10.999 9.32428 10.9528 9.15193 10.865 8.99999Z" stroke="#DC2626" stroke-linecap="round" stroke-linejoin="round"/>
<path d="M6 4.5V6.5" stroke="#DC2626" stroke-linecap="round" stroke-linejoin="round"/>
<path d="M6 8.5H6.005" stroke="#DC2626" stroke-linecap="round" stroke-linejoin="round"/>
</g>
<defs>
<clipPath id="clip0_4001_91">
<rect width="12" height="12" fill="white"/>
</clipPath>
</defs>
</svg>
