<svg width="36" height="36" viewBox="0 0 36 36" fill="none" xmlns="http://www.w3.org/2000/svg">
<path d="M28.5 4.5H7.5C5.84315 4.5 4.5 5.84315 4.5 7.5V28.5C4.5 30.1569 5.84315 31.5 7.5 31.5H28.5C30.1569 31.5 31.5 30.1569 31.5 28.5V7.5C31.5 5.84315 30.1569 4.5 28.5 4.5Z" stroke="#0D9488" stroke-width="3" stroke-linecap="round" stroke-linejoin="round"/>
<path d="M13.5 16.5C15.1569 16.5 16.5 15.1569 16.5 13.5C16.5 11.8431 15.1569 10.5 13.5 10.5C11.8431 10.5 10.5 11.8431 10.5 13.5C10.5 15.1569 11.8431 16.5 13.5 16.5Z" stroke="#0D9488" stroke-width="3" stroke-linecap="round" stroke-linejoin="round"/>
<path d="M31.5 22.5L26.871 17.871C26.3084 17.3086 25.5455 16.9927 24.75 16.9927C23.9545 16.9927 23.1916 17.3086 22.629 17.871L9 31.5" stroke="#0D9488" stroke-width="3" stroke-linecap="round" stroke-linejoin="round"/>
</svg>
