<svg width="65" height="20" viewBox="0 0 65 20" fill="none" xmlns="http://www.w3.org/2000/svg">
<path d="M0 10C0 4.47715 4.47715 0 10 0H55C60.5228 0 65 4.47715 65 10C65 15.5228 60.5228 20 55 20H10C4.47715 20 0 15.5228 0 10Z" fill="#DCFCE7"/>
<path d="M13.088 15.144C12.448 15.144 11.852 15.028 11.3 14.796C10.748 14.564 10.264 14.24 9.848 13.824C9.432 13.408 9.108 12.92 8.876 12.36C8.644 11.8 8.528 11.188 8.528 10.524C8.528 9.86 8.64 9.248 8.864 8.688C9.088 8.12 9.404 7.632 9.812 7.224C10.22 6.808 10.696 6.488 11.24 6.264C11.792 6.032 12.392 5.916 13.04 5.916C13.688 5.916 14.268 6.024 14.78 6.24C15.3 6.456 15.74 6.744 16.1 7.104C16.46 7.464 16.716 7.864 16.868 8.304L15.224 9.096C15.072 8.664 14.804 8.308 14.42 8.028C14.044 7.74 13.584 7.596 13.04 7.596C12.512 7.596 12.048 7.72 11.648 7.968C11.248 8.216 10.936 8.56 10.712 9C10.496 9.432 10.388 9.94 10.388 10.524C10.388 11.108 10.504 11.62 10.736 12.06C10.968 12.5 11.284 12.844 11.684 13.092C12.092 13.34 12.56 13.464 13.088 13.464C13.496 13.464 13.876 13.388 14.228 13.236C14.588 13.076 14.876 12.848 15.092 12.552C15.316 12.256 15.428 11.9 15.428 11.484V10.74L16.28 11.46H13.04V9.9H17.288V10.848C17.288 11.576 17.168 12.212 16.928 12.756C16.688 13.292 16.364 13.74 15.956 14.1C15.556 14.452 15.104 14.716 14.6 14.892C14.104 15.06 13.6 15.144 13.088 15.144ZM21.4605 15.144C20.7645 15.144 20.1605 14.992 19.6485 14.688C19.1365 14.376 18.7405 13.96 18.4605 13.44C18.1805 12.92 18.0405 12.344 18.0405 11.712C18.0405 11.056 18.1845 10.472 18.4725 9.96C18.7685 9.448 19.1645 9.044 19.6605 8.748C20.1565 8.452 20.7165 8.304 21.3405 8.304C21.8605 8.304 22.3205 8.388 22.7205 8.556C23.1205 8.716 23.4565 8.944 23.7285 9.24C24.0085 9.536 24.2205 9.88 24.3645 10.272C24.5085 10.656 24.5805 11.076 24.5805 11.532C24.5805 11.66 24.5725 11.788 24.5565 11.916C24.5485 12.036 24.5285 12.14 24.4965 12.228H19.5885V10.908H23.4765L22.6245 11.532C22.7045 11.188 22.7005 10.884 22.6125 10.62C22.5245 10.348 22.3685 10.136 22.1445 9.984C21.9285 9.824 21.6605 9.744 21.3405 9.744C21.0285 9.744 20.7605 9.82 20.5365 9.972C20.3125 10.124 20.1445 10.348 20.0325 10.644C19.9205 10.94 19.8765 11.3 19.9005 11.724C19.8685 12.092 19.9125 12.416 20.0325 12.696C20.1525 12.976 20.3365 13.196 20.5845 13.356C20.8325 13.508 21.1325 13.584 21.4845 13.584C21.8045 13.584 22.0765 13.52 22.3005 13.392C22.5325 13.264 22.7125 13.088 22.8405 12.864L24.2805 13.548C24.1525 13.868 23.9485 14.148 23.6685 14.388C23.3965 14.628 23.0725 14.816 22.6965 14.952C22.3205 15.08 21.9085 15.144 21.4605 15.144ZM25.6405 15V8.448H27.3205V9.744L27.2245 9.456C27.3765 9.064 27.6205 8.776 27.9565 8.592C28.3005 8.4 28.7005 8.304 29.1565 8.304C29.6525 8.304 30.0845 8.408 30.4525 8.616C30.8285 8.824 31.1205 9.116 31.3285 9.492C31.5365 9.86 31.6405 10.292 31.6405 10.788V15H29.8405V11.172C29.8405 10.916 29.7885 10.696 29.6845 10.512C29.5885 10.328 29.4485 10.184 29.2645 10.08C29.0885 9.976 28.8805 9.924 28.6405 9.924C28.4085 9.924 28.2005 9.976 28.0165 10.08C27.8325 10.184 27.6885 10.328 27.5845 10.512C27.4885 10.696 27.4405 10.916 27.4405 11.172V15H25.6405ZM35.1761 15.144C34.6481 15.144 34.1961 15.032 33.8201 14.808C33.4521 14.576 33.1721 14.256 32.9801 13.848C32.7881 13.44 32.6921 12.964 32.6921 12.42V8.448H34.4921V12.276C34.4921 12.524 34.5401 12.744 34.6361 12.936C34.7401 13.12 34.8841 13.264 35.0681 13.368C35.2521 13.472 35.4601 13.524 35.6921 13.524C35.9321 13.524 36.1401 13.472 36.3161 13.368C36.5001 13.264 36.6401 13.12 36.7361 12.936C36.8401 12.744 36.8921 12.524 36.8921 12.276V8.448H38.6921V15H37.0121V13.704L37.1081 13.992C36.9561 14.384 36.7081 14.676 36.3641 14.868C36.0281 15.052 35.6321 15.144 35.1761 15.144ZM40.0077 15V8.448H41.8077V15H40.0077ZM40.0077 7.86V6.06H41.8077V7.86H40.0077ZM43.1248 15V8.448H44.8048V9.744L44.7088 9.456C44.8608 9.064 45.1048 8.776 45.4408 8.592C45.7848 8.4 46.1848 8.304 46.6408 8.304C47.1368 8.304 47.5688 8.408 47.9368 8.616C48.3128 8.824 48.6048 9.116 48.8128 9.492C49.0208 9.86 49.1248 10.292 49.1248 10.788V15H47.3248V11.172C47.3248 10.916 47.2728 10.696 47.1688 10.512C47.0728 10.328 46.9328 10.184 46.7488 10.08C46.5728 9.976 46.3648 9.924 46.1248 9.924C45.8928 9.924 45.6848 9.976 45.5008 10.08C45.3168 10.184 45.1728 10.328 45.0688 10.512C44.9728 10.696 44.9248 10.916 44.9248 11.172V15H43.1248ZM53.4644 15.144C52.7684 15.144 52.1644 14.992 51.6524 14.688C51.1404 14.376 50.7444 13.96 50.4644 13.44C50.1844 12.92 50.0444 12.344 50.0444 11.712C50.0444 11.056 50.1884 10.472 50.4764 9.96C50.7724 9.448 51.1684 9.044 51.6644 8.748C52.1604 8.452 52.7204 8.304 53.3444 8.304C53.8644 8.304 54.3244 8.388 54.7244 8.556C55.1244 8.716 55.4604 8.944 55.7324 9.24C56.0124 9.536 56.2244 9.88 56.3684 10.272C56.5124 10.656 56.5844 11.076 56.5844 11.532C56.5844 11.66 56.5764 11.788 56.5604 11.916C56.5524 12.036 56.5324 12.14 56.5004 12.228H51.5924V10.908H55.4804L54.6284 11.532C54.7084 11.188 54.7044 10.884 54.6164 10.62C54.5284 10.348 54.3724 10.136 54.1484 9.984C53.9324 9.824 53.6644 9.744 53.3444 9.744C53.0324 9.744 52.7644 9.82 52.5404 9.972C52.3164 10.124 52.1484 10.348 52.0364 10.644C51.9244 10.94 51.8804 11.3 51.9044 11.724C51.8724 12.092 51.9164 12.416 52.0364 12.696C52.1564 12.976 52.3404 13.196 52.5884 13.356C52.8364 13.508 53.1364 13.584 53.4884 13.584C53.8084 13.584 54.0804 13.52 54.3044 13.392C54.5364 13.264 54.7164 13.088 54.8444 12.864L56.2844 13.548C56.1564 13.868 55.9524 14.148 55.6724 14.388C55.4004 14.628 55.0764 14.816 54.7004 14.952C54.3244 15.08 53.9124 15.144 53.4644 15.144Z" fill="#059669"/>
</svg>
