<svg width="12" height="12" viewBox="0 0 12 12" fill="none" xmlns="http://www.w3.org/2000/svg">
<path d="M10 6.49998C10 8.99998 8.25 10.25 6.17 10.975C6.06108 11.0119 5.94277 11.0101 5.835 10.97C3.75 10.25 2 8.99998 2 6.49998V2.99998C2 2.86737 2.05268 2.7402 2.14645 2.64643C2.24021 2.55266 2.36739 2.49998 2.5 2.49998C3.5 2.49998 4.75 1.89998 5.62 1.13998C5.72593 1.04948 5.86068 0.999756 6 0.999756C6.13932 0.999756 6.27407 1.04948 6.38 1.13998C7.255 1.90498 8.5 2.49998 9.5 2.49998C9.63261 2.49998 9.75979 2.55266 9.85355 2.64643C9.94732 2.7402 10 2.86737 10 2.99998V6.49998Z" stroke="#059669" stroke-linecap="round" stroke-linejoin="round"/>
<path d="M4.5 6L5.5 7L7.5 5" stroke="#059669" stroke-linecap="round" stroke-linejoin="round"/>
</svg>
