<svg width="256" height="192" viewBox="0 0 256 192" fill="none" xmlns="http://www.w3.org/2000/svg">
<path d="M128 152.686C159.307 152.686 184.686 127.307 184.686 96C184.686 64.6934 159.307 39.3143 128 39.3143C96.6935 39.3143 71.3145 64.6934 71.3145 96C71.3145 127.307 96.6935 152.686 128 152.686Z" fill="#DCFCE7" stroke="#059669" stroke-width="1.82857"/>
<path d="M128 139.886C152.237 139.886 171.886 120.237 171.886 96C171.886 71.7626 152.237 52.1143 128 52.1143C103.763 52.1143 84.1143 71.7626 84.1143 96C84.1143 120.237 103.763 139.886 128 139.886Z" fill="#059669"/>
<path d="M107.886 96L121.6 109.714L149.943 81.3715" stroke="white" stroke-width="4.57143" stroke-linecap="round" stroke-linejoin="round"/>
</svg>
