<svg width="192" height="144" viewBox="0 0 192 144" fill="none" xmlns="http://www.w3.org/2000/svg">
<path d="M142.629 19.8857H49.3714C44.8269 19.8857 41.1428 23.5698 41.1428 28.1143V120C41.1428 124.545 44.8269 128.229 49.3714 128.229H142.629C147.173 128.229 150.857 124.545 150.857 120V28.1143C150.857 23.5698 147.173 19.8857 142.629 19.8857Z" fill="white" stroke="#E2E8F0" stroke-width="1.37143"/>
<path d="M137.829 33.6H54.1714C53.0353 33.6 52.1143 34.521 52.1143 35.6571V38.4C52.1143 39.5361 53.0353 40.4571 54.1714 40.4571H137.829C138.965 40.4571 139.886 39.5361 139.886 38.4V35.6571C139.886 34.521 138.965 33.6 137.829 33.6Z" fill="#E2E8F0"/>
<path d="M59.6571 48.6857H54.1714C53.0353 48.6857 52.1143 49.6067 52.1143 50.7429V56.2286C52.1143 57.3647 53.0353 58.2857 54.1714 58.2857H59.6571C60.7932 58.2857 61.7143 57.3647 61.7143 56.2286V50.7429C61.7143 49.6067 60.7932 48.6857 59.6571 48.6857Z" fill="#FEE2E2" stroke="#DC2626" stroke-width="1.02857"/>
<path d="M54.1714 50.7429L59.6571 56.2286M59.6571 50.7429L54.1714 56.2286" stroke="#DC2626" stroke-width="1.02857" stroke-linecap="round"/>
<path d="M130.971 51.4286H69.2571C68.121 51.4286 67.2 52.3496 67.2 53.4857V54.1714C67.2 55.3076 68.121 56.2286 69.2571 56.2286H130.971C132.108 56.2286 133.029 55.3076 133.029 54.1714V53.4857C133.029 52.3496 132.108 51.4286 130.971 51.4286Z" fill="#E2E8F0"/>
<path d="M59.6571 66.5143H54.1714C53.0353 66.5143 52.1143 67.4353 52.1143 68.5714V74.0571C52.1143 75.1933 53.0353 76.1143 54.1714 76.1143H59.6571C60.7932 76.1143 61.7143 75.1933 61.7143 74.0571V68.5714C61.7143 67.4353 60.7932 66.5143 59.6571 66.5143Z" fill="#FEE2E2" stroke="#DC2626" stroke-width="1.02857"/>
<path d="M54.1714 68.5714L59.6571 74.0571M59.6571 68.5714L54.1714 74.0571" stroke="#DC2626" stroke-width="1.02857" stroke-linecap="round"/>
<path d="M115.886 69.2571H69.2571C68.121 69.2571 67.2 70.1782 67.2 71.3143V72C67.2 73.1361 68.121 74.0571 69.2571 74.0571H115.886C117.022 74.0571 117.943 73.1361 117.943 72V71.3143C117.943 70.1782 117.022 69.2571 115.886 69.2571Z" fill="#E2E8F0"/>
<path d="M59.6571 84.3428H54.1714C53.0353 84.3428 52.1143 85.2638 52.1143 86.4V91.8857C52.1143 93.0218 53.0353 93.9428 54.1714 93.9428H59.6571C60.7932 93.9428 61.7143 93.0218 61.7143 91.8857V86.4C61.7143 85.2638 60.7932 84.3428 59.6571 84.3428Z" fill="#DCFCE7" stroke="#059669" stroke-width="1.02857"/>
<path d="M54.1714 89.1428L56.9142 91.8857L61.0285 86.4" stroke="#059669" stroke-width="1.02857" stroke-linecap="round" stroke-linejoin="round"/>
<path d="M130.971 87.0857H69.2571C68.121 87.0857 67.2 88.0067 67.2 89.1428V89.8286C67.2 90.9647 68.121 91.8857 69.2571 91.8857H130.971C132.108 91.8857 133.029 90.9647 133.029 89.8286V89.1428C133.029 88.0067 132.108 87.0857 130.971 87.0857Z" fill="#E2E8F0"/>
<path d="M59.6571 102.171H54.1714C53.0353 102.171 52.1143 103.092 52.1143 104.229V109.714C52.1143 110.85 53.0353 111.771 54.1714 111.771H59.6571C60.7932 111.771 61.7143 110.85 61.7143 109.714V104.229C61.7143 103.092 60.7932 102.171 59.6571 102.171Z" fill="#DCFCE7" stroke="#059669" stroke-width="1.02857"/>
<path d="M54.1714 106.971L56.9142 109.714L61.0285 104.229" stroke="#059669" stroke-width="1.02857" stroke-linecap="round" stroke-linejoin="round"/>
<path d="M115.886 104.914H69.2571C68.121 104.914 67.2 105.835 67.2 106.971V107.657C67.2 108.793 68.121 109.714 69.2571 109.714H115.886C117.022 109.714 117.943 108.793 117.943 107.657V106.971C117.943 105.835 117.022 104.914 115.886 104.914Z" fill="#E2E8F0"/>
</svg>
