<svg width="20" height="20" viewBox="0 0 20 20" fill="none" xmlns="http://www.w3.org/2000/svg">
<path d="M10 18.3333C14.6024 18.3333 18.3334 14.6023 18.3334 9.99996C18.3334 5.39759 14.6024 1.66663 10 1.66663C5.39765 1.66663 1.66669 5.39759 1.66669 9.99996C1.66669 14.6023 5.39765 18.3333 10 18.3333Z" stroke="white" stroke-width="1.66667" stroke-linecap="round" stroke-linejoin="round"/>
<path d="M7.57501 7.49999C7.77093 6.94304 8.15764 6.47341 8.66664 6.17426C9.17564 5.87512 9.77409 5.76577 10.356 5.86558C10.9379 5.96539 11.4657 6.26792 11.8459 6.71959C12.2261 7.17126 12.4342 7.74292 12.4333 8.33332C12.4333 9.99999 9.93335 10.8333 9.93335 10.8333" stroke="white" stroke-width="1.66667" stroke-linecap="round" stroke-linejoin="round"/>
<path d="M10 14.1666H10.0083" stroke="white" stroke-width="1.66667" stroke-linecap="round" stroke-linejoin="round"/>
</svg>
