<svg width="192" height="144" viewBox="0 0 192 144" fill="none" xmlns="http://www.w3.org/2000/svg">
<path d="M137.143 19.8857H54.8571C51.07 19.8857 48 22.9558 48 26.7429V122.743C48 126.53 51.07 129.6 54.8571 129.6H137.143C140.93 129.6 144 126.53 144 122.743V26.7429C144 22.9558 140.93 19.8857 137.143 19.8857Z" fill="#FEF2F2" stroke="#DC2626" stroke-width="1.37143"/>
<path d="M133.029 30.8571H58.9714C57.4565 30.8571 56.2285 32.0852 56.2285 33.6V40.4571C56.2285 41.972 57.4565 43.2 58.9714 43.2H133.029C134.543 43.2 135.771 41.972 135.771 40.4571V33.6C135.771 32.0852 134.543 30.8571 133.029 30.8571Z" fill="#FECACA"/>
<path d="M113.143 51.4286H58.2857C57.1495 51.4286 56.2285 52.3496 56.2285 53.4857V54.1714C56.2285 55.3075 57.1495 56.2286 58.2857 56.2286H113.143C114.279 56.2286 115.2 55.3075 115.2 54.1714V53.4857C115.2 52.3496 114.279 51.4286 113.143 51.4286Z" fill="#FCA5A5"/>
<path d="M122.743 60.3429H58.2857C57.1495 60.3429 56.2285 61.2639 56.2285 62.4V63.0857C56.2285 64.2219 57.1495 65.1429 58.2857 65.1429H122.743C123.879 65.1429 124.8 64.2219 124.8 63.0857V62.4C124.8 61.2639 123.879 60.3429 122.743 60.3429Z" fill="#FCA5A5"/>
<path d="M104.914 69.2571H58.2857C57.1495 69.2571 56.2285 70.1782 56.2285 71.3143V72C56.2285 73.1361 57.1495 74.0571 58.2857 74.0571H104.914C106.05 74.0571 106.971 73.1361 106.971 72V71.3143C106.971 70.1782 106.05 69.2571 104.914 69.2571Z" fill="#FCA5A5"/>
<path d="M135.086 82.9714H56.9142C56.5355 82.9714 56.2285 83.2017 56.2285 83.4857C56.2285 83.7698 56.5355 84 56.9142 84H135.086C135.464 84 135.771 83.7698 135.771 83.4857C135.771 83.2017 135.464 82.9714 135.086 82.9714Z" fill="#FCA5A5"/>
<path d="M88.4571 89.8286H58.2857C57.1495 89.8286 56.2285 90.7496 56.2285 91.8857V92.5714C56.2285 93.7075 57.1495 94.6286 58.2857 94.6286H88.4571C89.5932 94.6286 90.5142 93.7075 90.5142 92.5714V91.8857C90.5142 90.7496 89.5932 89.8286 88.4571 89.8286Z" fill="#FCA5A5"/>
<path opacity="0.4" d="M133.714 89.8286H100.8C99.6637 89.8286 98.7427 90.7496 98.7427 91.8857V92.5714C98.7427 93.7075 99.6637 94.6286 100.8 94.6286H133.714C134.85 94.6286 135.771 93.7075 135.771 92.5714V91.8857C135.771 90.7496 134.85 89.8286 133.714 89.8286Z" fill="#DC2626"/>
<path d="M123.428 41.8286C131.76 41.8286 138.514 35.0745 138.514 26.7428C138.514 18.4112 131.76 11.6571 123.428 11.6571C115.097 11.6571 108.343 18.4112 108.343 26.7428C108.343 35.0745 115.097 41.8286 123.428 41.8286Z" fill="#DC2626"/>
<path d="M117.257 20.5714L129.6 32.9143M129.6 20.5714L117.257 32.9143" stroke="white" stroke-width="2.05714" stroke-linecap="round"/>
<path d="M101.486 111.771L111.086 104.914L120.686 111.771" stroke="#F97316" stroke-width="1.71429" stroke-linecap="round" stroke-linejoin="round"/>
<path d="M111.085 109.029C113.358 109.029 115.2 107.187 115.2 104.914C115.2 102.642 113.358 100.8 111.085 100.8C108.813 100.8 106.971 102.642 106.971 104.914C106.971 107.187 108.813 109.029 111.085 109.029Z" fill="#FFF7ED" stroke="#F97316" stroke-width="1.37143"/>
</svg>
