<svg width="192" height="144" viewBox="0 0 192 144" fill="none" xmlns="http://www.w3.org/2000/svg">
<path d="M120.686 18.5143H71.3144C66.0124 18.5143 61.7144 22.8123 61.7144 28.1143V118.629C61.7144 123.931 66.0124 128.229 71.3144 128.229H120.686C125.988 128.229 130.286 123.931 130.286 118.629V28.1143C130.286 22.8123 125.988 18.5143 120.686 18.5143Z" fill="#E8EFFC" stroke="#0A3D8F" stroke-width="1.71429"/>
<path d="M120.686 29.4857H71.3143C69.4208 29.4857 67.8857 31.0207 67.8857 32.9143V113.829C67.8857 115.722 69.4208 117.257 71.3143 117.257H120.686C122.579 117.257 124.114 115.722 124.114 113.829V32.9143C124.114 31.0207 122.579 29.4857 120.686 29.4857Z" fill="white"/>
<path d="M115.886 37.7143H76.1143C74.9781 37.7143 74.0571 38.6353 74.0571 39.7714V40.4572C74.0571 41.5933 74.9781 42.5143 76.1143 42.5143H115.886C117.022 42.5143 117.943 41.5933 117.943 40.4572V39.7714C117.943 38.6353 117.022 37.7143 115.886 37.7143Z" fill="#CBD5E1"/>
<path d="M104.229 47.3143H75.4286C74.6711 47.3143 74.0571 47.9283 74.0571 48.6857V49.3714C74.0571 50.1288 74.6711 50.7429 75.4286 50.7429H104.229C104.986 50.7429 105.6 50.1288 105.6 49.3714V48.6857C105.6 47.9283 104.986 47.3143 104.229 47.3143Z" fill="#E2E8F0"/>
<path d="M111.086 54.8571H75.4286C74.6711 54.8571 74.0571 55.4712 74.0571 56.2286V56.9143C74.0571 57.6717 74.6711 58.2857 75.4286 58.2857H111.086C111.843 58.2857 112.457 57.6717 112.457 56.9143V56.2286C112.457 55.4712 111.843 54.8571 111.086 54.8571Z" fill="#E2E8F0"/>
<path d="M117.257 65.1429H74.7428C74.3641 65.1429 74.0571 65.3731 74.0571 65.6571C74.0571 65.9412 74.3641 66.1714 74.7428 66.1714H117.257C117.636 66.1714 117.943 65.9412 117.943 65.6571C117.943 65.3731 117.636 65.1429 117.257 65.1429Z" fill="#CBD5E1"/>
<path d="M91.8857 72H75.4286C74.6711 72 74.0571 72.614 74.0571 73.3714V74.0571C74.0571 74.8146 74.6711 75.4286 75.4286 75.4286H91.8857C92.6431 75.4286 93.2571 74.8146 93.2571 74.0571V73.3714C93.2571 72.614 92.6431 72 91.8857 72Z" fill="#E2E8F0"/>
<path opacity="0.35" d="M116.572 72H102.857C102.1 72 101.486 72.614 101.486 73.3714V74.0571C101.486 74.8146 102.1 75.4286 102.857 75.4286H116.572C117.329 75.4286 117.943 74.8146 117.943 74.0571V73.3714C117.943 72.614 117.329 72 116.572 72Z" fill="#0A3D8F"/>
<path d="M91.8857 80.2286H75.4286C74.6711 80.2286 74.0571 80.8426 74.0571 81.6V82.2857C74.0571 83.0431 74.6711 83.6571 75.4286 83.6571H91.8857C92.6431 83.6571 93.2571 83.0431 93.2571 82.2857V81.6C93.2571 80.8426 92.6431 80.2286 91.8857 80.2286Z" fill="#E2E8F0"/>
<path opacity="0.35" d="M116.572 80.2286H102.857C102.1 80.2286 101.486 80.8426 101.486 81.6V82.2857C101.486 83.0431 102.1 83.6571 102.857 83.6571H116.572C117.329 83.6571 117.943 83.0431 117.943 82.2857V81.6C117.943 80.8426 117.329 80.2286 116.572 80.2286Z" fill="#0A3D8F"/>
<path d="M60.3428 73.3714H131.657" stroke="#0D9488" stroke-width="1.71429" stroke-dasharray="2.74 2.06"/>
<path opacity="0.12" d="M129.6 71.3143H62.3999C61.2638 71.3143 60.3428 72.2353 60.3428 73.3714V74.0571C60.3428 75.1933 61.2638 76.1143 62.3999 76.1143H129.6C130.736 76.1143 131.657 75.1933 131.657 74.0571V73.3714C131.657 72.2353 130.736 71.3143 129.6 71.3143Z" fill="#0D9488"/>
<path d="M41.1428 52.8V41.1429H52.8" stroke="#0A3D8F" stroke-width="2.05714" stroke-linecap="round"/>
<path d="M150.857 52.8V41.1429H139.2" stroke="#0A3D8F" stroke-width="2.05714" stroke-linecap="round"/>
<path d="M41.1428 93.9429V105.6H52.8" stroke="#0A3D8F" stroke-width="2.05714" stroke-linecap="round"/>
<path d="M150.857 93.9429V105.6H139.2" stroke="#0A3D8F" stroke-width="2.05714" stroke-linecap="round"/>
</svg>
