<svg width="36" height="36" viewBox="0 0 36 36" fill="none" xmlns="http://www.w3.org/2000/svg">
<path d="M0 14C0 6.26801 6.26801 0 14 0H22C29.732 0 36 6.26801 36 14V22C36 29.732 29.732 36 22 36H14C6.26801 36 0 29.732 0 22V14Z" fill="#E8EFFC"/>
<path d="M24 20V22.6667C24 23.0203 23.8595 23.3594 23.6095 23.6095C23.3594 23.8595 23.0203 24 22.6667 24H13.3333C12.9797 24 12.6406 23.8595 12.3905 23.6095C12.1405 23.3594 12 23.0203 12 22.6667V20" stroke="#0A3D8F" stroke-width="1.33333" stroke-linecap="round" stroke-linejoin="round"/>
<path d="M21.3332 15.3333L17.9998 12L14.6665 15.3333" stroke="#0A3D8F" stroke-width="1.33333" stroke-linecap="round" stroke-linejoin="round"/>
<path d="M18 12V20" stroke="#0A3D8F" stroke-width="1.33333" stroke-linecap="round" stroke-linejoin="round"/>
</svg>
